# xmcd CD database file
# Copyright (C) 1995-1998 Ti Kan
#
# Track frame offsets:
#	150
#	15656
#	30744
#	42432
#	60571
#	83642
#	96772
#	114075
#	125910
#	139974
#	159276
#
# Disc length: 2364 seconds
#
# Revision: 2
# Processed by: cddbd v1.4PL0 Copyright (c) Steve Scherf et al.
# Submitted via: CDex 1.30Release
#
DISCID=88093a0b
DTITLE=Oglesby Erskine - Blues Dancin'
DYEAR=1900
DGENRE=Blues
TTITLE0=Jack And Coke
TTITLE1=I Have The Same Old Blues
TTITLE2=Two Franc Blues
TTITLE3=Two Shots Of Jack
TTITLE4=Train I Ride
TTITLE5=Back At BB's
TTITLE6=Caress Me Baby
TTITLE7=I'm Trying
TTITLE8=Tore Up
TTITLE9=Madison Blues
TTITLE10=Next Time You See Me
EXTD=ID3G:   0
EXTT0=
EXTT1=
EXTT2=
EXTT3=
EXTT4=
EXTT5=
EXTT6=
EXTT7=
EXTT8=
EXTT9=
EXTT10=
PLAYORDER=
